<svg xmlns="http://www.w3.org/2000/svg" viewBox="0 0 1600 420" aria-hidden="true"><g fill="none" stroke="#d9a43a" stroke-width="5" opacity=".72"><path d="M0 350h1600"/><path d="M70 350V225h110v125M95 225v-42h60v42M250 350V275h90v75M285 275v-70h22v70M390 350V240h180v110M418 240v-35h124v35M456 205v-42h48v42M650 350V200h155v150M685 200l42-74 43 74M713 126v-49h28v49M870 350V267h110v83M1015 350V235h180v115M1048 235v-42h115v42M1105 193v-65M1090 128h30M1260 350V175h130v175M1290 175l35-68 35 68M1325 107V62M1450 350V270h90v80"/><path d="M30 350c130-43 250-43 360 0M1210 350c140-50 250-50 360 0"/></g></svg>